<svg width="210mm" height="297mm" inkscape:version="1.2.2 (b0a8486, 2022-12-01)" sodipodi:docname="a.svg" version="1.1" viewBox="0 0 210 297" xmlns="http://www.w3.org/2000/svg" xmlns:inkscape="http://www.inkscape.org/namespaces/inkscape" xmlns:sodipodi="http://sodipodi.sourceforge.net/DTD/sodipodi-0.dtd">
 <sodipodi:namedview bordercolor="#000000" borderopacity="0.25" inkscape:current-layer="layer1" inkscape:cx="355.00181" inkscape:cy="567.20959" inkscape:deskcolor="#d1d1d1" inkscape:document-units="mm" inkscape:pagecheckerboard="0" inkscape:pageopacity="0.0" inkscape:showpageshadow="2" inkscape:window-height="768" inkscape:window-maximized="0" inkscape:window-width="1360" inkscape:window-x="-4" inkscape:window-y="0" inkscape:zoom="0.50422278" pagecolor="#ffffff" showgrid="false"/>
  <inkscape:path-effect apply_no_weight="true" apply_with_weight="true" effect="bspline" helper_size="0" is_visible="false" lpeversion="1" only_selected="false" steps="2" weight="33.333333"/>
  <clipPath id="clipPath7599">
    <path d="m91.367 212.94q-20.895 0-40.485-17.239-19.59-17.5-34.216-48.843l12.798-7.3134q12.537 26.642 28.731 41.53 16.194 14.627 33.172 14.627 10.709 0 18.284-7.8358 7.8358-8.097 7.8358-19.59 0-14.104-8.8806-23.769-8.6194-9.6642-20.634-9.6642-3.9179 0-8.3582 0.78358-4.1791 0.78358-9.1418 2.6119l-7.0522-15.672q15.672-1.306 27.686-10.709 12.015-9.6642 12.015-20.634 0-9.9253-6.0074-16.978-6.0074-7.3134-14.366-7.3134-10.187 0-21.157 6.5298-10.97 6.2686-20.634 17.761l-12.276-12.015q9.1418-13.321 23.246-20.634 14.366-7.3134 30.821-7.3134 15.933 0 26.903 11.754 11.231 11.493 11.231 28.209 0 8.8806-4.1791 16.978-4.1791 8.097-11.493 14.366 13.321 7.5746 23.507 11.754 10.187 3.9179 16.455 3.9179 3.9179 0 9.6642-2.0895 5.7462-2.3507 13.06-6.5298v-62.686h-31.343v-15.672h78.358v15.672h-29.776v158.28h-17.239v-78.358q-4.1791 3.6567-8.6194 5.4851-4.1791 1.5672-8.8806 1.5672-7.3134 0-13.321-1.306-5.7462-1.5672-9.1418-3.9179 3.3955 2.8731 4.9627 7.8358 1.8284 4.9627 1.8284 11.231 0 18.806-12.798 32.127-12.537 13.06-30.56 13.06z"/>
  </clipPath>
    <path transform="translate(30.399 -6.5007)" d="m26.234 98.16s21.054-40.803 56.732-32.273c29.119 6.9614 24.86 57.016-19.589 78.041-3.1268 1.479 13.062-2.1873 13.062-2.1873s72.536 25.267 22.079 75.616c-41.781 41.691-81.208-67.454-81.208-67.454" clip-path="url(#clipPath7599)" stroke="#000" stroke-linecap="round" stroke-linejoin="round" stroke-width="25.965" sodipodi:nodetypes="csscsc"/>
  <path d="m13.673 41.931c9.2742-26.759-29.408 15.541 9.2742-29.162 38.682-44.702-3.7252 7.9118 1.7657 11.518" stroke-width=".26458"/>
</svg>
