<?xml version="1.0" encoding="UTF-8"?>
<!-- Created with Inkscape (http://www.inkscape.org/) -->
<svg width="210mm" height="297mm" inkscape:version="1.2.2 (b0a8486, 2022-12-01)" sodipodi:docname="ayu.svg" version="1.1" viewBox="0 0 210 297" xmlns="http://www.w3.org/2000/svg" xmlns:inkscape="http://www.inkscape.org/namespaces/inkscape" xmlns:sodipodi="http://sodipodi.sourceforge.net/DTD/sodipodi-0.dtd">
 <sodipodi:namedview bordercolor="#000000" borderopacity="0.25" inkscape:current-layer="layer1" inkscape:cx="279.6383" inkscape:cy="422.43232" inkscape:deskcolor="#d1d1d1" inkscape:document-units="mm" inkscape:pagecheckerboard="0" inkscape:pageopacity="0.0" inkscape:showpageshadow="2" inkscape:window-height="736" inkscape:window-maximized="1" inkscape:window-width="1360" inkscape:window-x="0" inkscape:window-y="0" inkscape:zoom="0.50422278" pagecolor="#ffffff" showgrid="false" showguides="true"/>
 <defs>
  <clipPath id="clipPath18912">
   <g transform="scale(.87703 1.1402)" stroke-width="19.717" style="paint-order:stroke fill markers" aria-label="ऊ">
    <path d="m1.0549 15.585v-15.095h238.5v15.095h-110.7q5.5348 6.2895 8.3022 13.334 2.7674 6.7927 2.7674 13.585 0 11.321-5.0316 20.126-5.0316 8.5538-13.334 11.573 8.0506 3.7737 13.082 8.8053t6.038 10.063q5.7864-13.837 16.856-22.139 11.321-8.3022 24.403-8.3022 18.114 0 30.693 11.824 12.831 11.573 12.831 28.177 0 16.856-7.5474 31.448t-20.881 23.9l-11.07-12.327q10.566-6.038 16.604-17.611 6.038-11.573 6.038-25.41 0-10.315-7.799-17.611-7.799-7.5474-18.869-7.5474-12.579 0-22.894 13.837-10.315 13.837-14.089 34.97-2.5158 15.85-15.598 26.416-12.831 10.315-29.435 10.315-26.668 0-51.574-29.687-24.655-29.938-37.234-77.487l15.095-6.7927q11.321 43.02 31.951 70.191 20.63 26.919 41.762 26.919 12.327 0 21.133-9.8117 8.8053-9.8117 8.8053-23.649 0-12.327-8.8053-21.133-8.8053-9.0569-21.133-9.0569h-30.19l-6.7927-14.843h33.46q11.07 0 18.617-7.2958 7.799-7.5474 7.799-17.862 0-6.0379-4.2769-13.082-4.2769-7.0443-12.076-13.837z" stroke-width="19.717" style="paint-order:stroke fill markers"/>
   </g>
  </clipPath>
 </defs>
 <g inkscape:groupmode="layer" inkscape:label="Layer 1">
  <path d="m105.63 23.797c0.75942 7.8126 4.302-1.0378 6.8148 11.269l4.9908 9.0779-2.6171 14.449-4.6507 13.04-10.501 8.9872-33.805 3.0914-17.139 3.1505 37.573-0.84421 12.987 2.6237 7.504 5.4314 9.5656 12.96 5.8522 17.125-0.52474 18.247-10.846 20.551-15.286 13.527-22.146-1.9445-15.16-14.412-17.494-26.666-12.594-30.457-6.2968-24.8-6.1311-26.659 18.6-1.8601 32.942 74.364 26.352 4.7572 25.582 12.557 5.7007-21.149 6.276-18.936 16.594-17.641 19.728-3.4494 18.871 14.786 5.1754 28.068-3.8123 22.183-7.5371 13.857-16.343 14.244-106.69 41.801-119.41-110.83 30.68-95.33 251.54 0.95962" clip-path="url(#clipPath18912)" fill="none" stroke="#cbb600" stroke-dashoffset="1768.3" stroke-linecap="square" stroke-linejoin="round" stroke-width="20.5" style="paint-order:stroke fill markers" sodipodi:nodetypes="ccccccccccccccccccccccccccccccccccccccc"/>
 </g>
</svg>
