<?xml version="1.0" encoding="UTF-8" standalone="no"?>
<!-- Created with Inkscape (http://www.inkscape.org/) -->

<svg
   height="1000"
   width="1000"
   sodipodi:docname="ee.svg"
   version="1.1"
   id="svg340"
   viewBox="0 0 1000 1000"
   inkscape:version="1.2.2 (b0a8486, 2022-12-01)"
   xmlns:inkscape="http://www.inkscape.org/namespaces/inkscape"
   xmlns:sodipodi="http://sodipodi.sourceforge.net/DTD/sodipodi-0.dtd"
   xmlns="http://www.w3.org/2000/svg"
   xmlns:svg="http://www.w3.org/2000/svg"
   xmlns:rdf="http://www.w3.org/1999/02/22-rdf-syntax-ns#"
   xmlns:cc="http://creativecommons.org/ns#"
   xmlns:dc="http://purl.org/dc/elements/1.1/">
  <sodipodi:namedview
     id="base"
     pagecolor="#ffffff"
     bordercolor="#000000"
     borderopacity="0.3"
     inkscape:pageopacity="0.0"
     inkscape:pageshadow="2"
     inkscape:zoom="0.5"
     inkscape:cx="337"
     inkscape:cy="500"
     inkscape:document-units="px"
     inkscape:current-layer="layer1"
     showgrid="false"
     showguides="true"
     inkscape:window-width="1360"
     inkscape:window-height="736"
     inkscape:window-x="0"
     inkscape:window-y="0"
     inkscape:window-maximized="1"
     showborder="true"
     inkscape:showpageshadow="false"
     inkscape:pagecheckerboard="0"
     inkscape:deskcolor="#d1d1d1">
    <sodipodi:guide
       id="guide_baseline"
       inkscape:label="baseline"
       position="0,253"
       orientation="0,1"
       inkscape:locked="false" />
    <sodipodi:guide
       id="guide_ascender"
       inkscape:label="ascender"
       position="0,945"
       orientation="0,1"
       inkscape:locked="false" />
    <sodipodi:guide
       id="guide_caps"
       inkscape:label="caps"
       position="0,896"
       orientation="0,1"
       inkscape:locked="false" />
    <sodipodi:guide
       id="guide_xheight"
       inkscape:label="xheight"
       position="0,729"
       orientation="0,1"
       inkscape:locked="false" />
    <sodipodi:guide
       id="guide_descender"
       inkscape:label="descender"
       position="0,28"
       orientation="0,1"
       inkscape:locked="false" />
  </sodipodi:namedview>
  <defs
     id="defs4">
    <clipPath
       clipPathUnits="userSpaceOnUse"
       id="clipPath1538">
      <g
         aria-label="इ"
         transform="scale(1.2481836,0.80116421)"
         id="g1542"
         style="font-size:1546.6px;text-align:center;text-anchor:middle;stroke-width:42.149">
        <path
           d="M 0.5770815,94.506264 V 3.8851721 H 801.0634 V 94.506264 H 625.86262 V 355.79708 H 263.37825 q -24.16563,0 -42.28984,12.08281 -18.12422,12.08282 -18.12422,28.69668 0,31.71738 63.43476,96.6625 64.94512,63.43477 98.17285,63.43477 33.22774,0 99.6832,-24.16563 66.45547,-25.67598 101.19356,-25.67598 57.39336,0 98.17285,51.35196 42.28984,49.8416 42.28984,119.31777 0,125.35918 -77.02793,214.46992 -75.51758,87.60039 -184.26289,87.60039 37.75879,54.37263 101.19356,102.70393 63.43476,48.3312 149.5248,89.1107 l -49.8416,80.0486 q -108.74531,-61.9244 -190.3043,-131.4005 -81.55898,-69.4762 -131.40058,-140.46273 -101.19355,0 -172.18007,-37.75879 -69.476175,-39.26914 -69.476175,-93.6418 0,-40.77949 28.696675,-69.47617 30.20703,-30.20703 72.49688,-30.20703 57.39336,0 113.27636,40.77949 57.39336,39.26914 98.17285,110.25566 86.09004,0 148.01445,-64.94511 61.92442,-66.45547 61.92442,-157.07656 0,-27.18633 -12.08282,-48.33125 -10.57246,-21.14492 -27.18632,-21.14492 -34.73809,0 -101.19356,25.67597 -66.45546,24.16563 -99.6832,24.16563 -64.94511,0 -164.62832,-98.17285 -99.6832,-99.6832 -99.6832,-163.11797 0,-58.90371 48.33125,-99.6832 48.33125,-40.77949 116.29707,-40.77949 H 515.60696 V 94.506264 Z"
           id="path1540" />
      </g>
    </clipPath>
    <clipPath
       clipPathUnits="userSpaceOnUse"
       id="clipPath1587">
      <g
         aria-label="ई"
         transform="scale(1.436802,0.69599014)"
         id="g1591"
         style="font-size:1330.45px;text-align:center;text-anchor:middle;stroke-width:117.188">
        <path
           d="m 556.94707,1441.1858 q -92.24799,-53.27 -162.40844,-113.0363 -70.16044,-59.7663 -114.33554,-120.8319 -85.75166,0 -146.81723,-32.4817 -59.766306,-33.7809 -59.766306,-80.5545 0,-35.0803 24.686083,-59.7664 24.686083,-25.9853 61.065573,-25.9853 50.67143,0 98.74433,35.0802 48.0729,33.781 83.15312,94.8465 77.95606,0 133.82456,-55.8685 55.8685,-57.1677 55.8685,-135.12378 0,-23.38681 -12.99267,-41.57656 -11.69341,-18.18974 -29.88315,-18.18974 -20.78828,0 -40.2773,3.8978 -18.18974,3.8978 -37.67876,12.99267 -27.28461,11.69341 -51.9707,19.48902 -23.38681,6.49633 -42.87583,6.49633 -57.16777,0 -145.51796,-84.45239 -88.350191,-85.75165 -88.350191,-140.32089 0,-50.67143 42.875831,-85.75166 44.17509,-35.08022 103.9414,-35.08022 H 454.30494 V 445.94686 H 0.86057186 V 367.9908 H 434.81593 q -45.47437,-38.97802 -70.16045,-84.45239 -23.38682,-45.47436 -23.38682,-88.35019 0,-79.25532 59.76631,-133.824554 61.06558,-55.8685038 148.1165,-55.8685038 23.38682,0 46.77363,3.8978026 23.38682,3.8978022 48.0729,12.9926752 v 77.95605 q -36.37949,-14.291941 -59.76631,-19.489011 -23.38681,-6.496338 -35.08022,-6.496338 -50.67143,0 -85.75166,35.080219 -35.08022,35.08023 -35.08022,85.75166 0,48.0729 28.58389,94.84653 28.58388,45.47436 77.95605,77.95605 h 162.40844 v 77.95606 H 540.0566 V 670.72014 H 228.23239 q -20.78828,0 -36.37949,10.39414 -14.29194,10.39414 -14.29194,24.68608 0,27.28462 54.56923,83.15312 55.86851,54.56924 83.15312,54.56924 14.29195,0 35.08023,-5.19707 22.08755,-6.49634 51.9707,-16.89048 25.98535,-10.39414 48.0729,-15.59121 22.08755,-5.19707 37.67876,-5.19707 53.26996,0 90.94872,44.1751 38.97803,42.87583 38.97803,102.64213 0,107.83918 -63.66411,184.49598 -62.36484,75.3575 -152.0143,75.3575 20.78828,46.7737 74.05825,87.051 54.56923,41.5765 132.52529,68.8611 z"
           id="path1589" />
      </g>
    </clipPath>
  </defs>
  <metadata
     id="metadata7">
    <rdf:RDF>
      <cc:Work
         rdf:about="">
        <dc:format>image/svg+xml</dc:format>
        <dc:type
           rdf:resource="http://purl.org/dc/dcmitype/StillImage" />
      </cc:Work>
    </rdf:RDF>
  </metadata>
  <g
     id="layer1"
     inkscape:groupmode="layer"
     inkscape:label="Layer 1">
    <path
       style="fill:none;fill-opacity:1;stroke:#c9ff01;stroke-width:127.7;stroke-miterlimit:40.5;stroke-dasharray:none;stroke-opacity:1"
       d="m 714.703,306.34174 8.05787,132.10113 -446.03016,-1.18402 -23.35901,3.41296 -27.10504,10.39447 -20.64361,10.88544 -25.67493,25.11817 v 19.44134 l 17.38947,15.51013 17.33728,16.39588 28.83624,15.25866 42.63397,16.52777 53.43207,17.83173 50.00104,17.88873 27.10827,7.23053 23.70569,3.97504 34.60571,0.79547 26.06275,-5.61529 41.27582,-5.97583 35.28308,-3.78925 52.77197,-9.97571 48.53772,-7.07971 h 41.70544 l 45.04151,15.00269 43.9613,27.3767 21.4386,19.43726 v 32.67725 l -20.9104,28.53552 -46.77124,42.15381 -41.59912,29.57263 -61.12342,22.88684 -58.67053,9.6781 -40.88305,5.60571 -27.27259,1.50171 -40.28955,2.55969 H 454.3269 408.47095 l -50.9903,-4 -39.34485,-3.97497 -49.8526,-8.40247 -54.53674,-10.92651 -50.92566,-18.64734 -17.20727,-12.93457 -2.94709,-15.40185 11.33661,-15.2594 28.79151,-12.7837 h 32.68023 l 41.01703,5.51331 43.10419,11.48779 31.7893,8.77356 30.67402,14.65137 34.34607,20.39685 36.16253,19.03967 50.66205,32.23706 49.81445,34.73426 64.27076,29.48205 78.81201,31.31372 94.62829,29.2201 100.06348,35.32153 -47.41589,41.27525 -875.483677,-11.8524 -132.761543,-709.1676 1228.87284,3.87609 -331.91327,-31.23986 -15.08105,-27.91779 -34.03345,-18.52569 -30.49939,-18.75873 -40.4071,-26.65656 -36.11475,-39.74173 -3.77698,-36.79776 22.70447,-41.411464 50.86536,-24.76352 68.24096,-20.435791 88.31287,-7.155121 101.06396,12.527405 67.10193,10"
       id="path1578"
       sodipodi:nodetypes="cccccccccccccccccccccccccccccccccccccccccccccccccccccccccccccccccccccccccccc"
       clip-path="url(#clipPath1587)" />
  </g>
</svg>
